<svg width="18" height="20" viewBox="0 0 18 20" fill="none" xmlns="http://www.w3.org/2000/svg">
<path d="M11.7198 15.84C11.3998 16.11 10.8898 16.37 10.4898 16.5C9.14982 16.83 8.07982 16.16 7.86982 16.04C7.65982 15.93 7.08983 15.66 7.08983 15.66C7.08983 15.66 7.43983 15.55 7.49983 15.53C8.83983 14.99 9.38982 14.29 9.58982 13.42C9.78982 12.58 9.42982 11.86 9.27982 11.03C9.15982 10.34 9.16982 9.75 9.39982 9.13C9.41982 9.08 9.51982 8.7 9.51982 8.7C9.51982 8.7 9.62982 9.05 9.64982 9.11C10.3598 10.62 12.3698 11.29 12.7198 12.95C12.7498 13.1 12.7698 13.25 12.7698 13.41C12.7998 14.3 12.3998 15.26 11.7198 15.84ZM9.39982 2.34C9.27982 2.42 9.17982 2.49 9.08982 2.56C6.09982 4.87 6.17982 8.49 6.77982 11.11L6.78982 11.14L6.79983 11.17C6.85983 11.52 6.74983 11.87 6.51983 12.13C6.27983 12.39 5.93982 12.54 5.56982 12.54C5.12982 12.54 4.71982 12.34 4.34982 11.94C3.67982 11.21 3.17982 10.37 2.84982 9.48C2.48982 10.25 2.09982 11.46 2.17982 12.67C2.21982 13.18 2.29982 13.67 2.42982 14.1C2.60982 14.7 2.85982 15.26 3.17982 15.75C4.22982 17.41 6.05983 18.57 7.95983 18.8C8.37983 18.85 8.80982 18.88 9.21982 18.88C10.5598 18.88 12.4698 18.61 13.9598 17.31C15.7298 15.75 16.3098 13.32 15.3998 11.25C15.3598 11.15 15.3398 11.11 15.3098 11.06L15.2698 10.98C15.0598 10.56 14.7998 10.17 14.5198 9.84C14.2798 9.54 14.0398 9.28 13.7298 9.01C13.4298 8.74 13.0898 8.5 12.7298 8.24C12.2698 7.91 11.7998 7.57 11.3498 7.15C9.97982 5.83 9.29982 4.11 9.39982 2.34ZM11.4098 0C11.4098 0 11.2098 0.2 10.8498 0.99C10.1898 2.91 10.6998 4.94 12.1898 6.38C12.9198 7.07 13.7998 7.55 14.5498 8.22C14.8698 8.51 15.1698 8.81 15.4398 9.15C15.7998 9.57 16.0998 10.04 16.3498 10.53C16.3998 10.63 16.4498 10.73 16.4898 10.83C17.6098 13.38 16.8498 16.3 14.7598 18.14C13.2298 19.47 11.2198 20 9.21982 20C8.74982 20 8.26983 19.97 7.80983 19.91C5.51983 19.63 3.38982 18.25 2.17982 16.34C1.78982 15.74 1.49983 15.08 1.29983 14.41C1.13983 13.87 1.04983 13.31 1.00983 12.74C0.889825 10.86 1.67983 9.11 2.08983 8.43C2.49983 7.74 3.63982 6.25 3.63982 6.25C3.63982 6.25 3.63983 6.28 3.62983 6.34C3.40983 8.11 3.99983 9.88 5.21983 11.22C5.36983 11.39 5.48983 11.44 5.55983 11.44C5.61983 11.44 5.64983 11.4 5.63983 11.35C4.78983 7.59 5.36983 4 8.34983 1.7C8.93983 1.24 9.85982 0.76 10.3298 0.52C10.7998 0.28 11.4098 0 11.4098 0Z" fill="#030303"/>
</svg>
