<svg width="20" height="20" viewBox="0 0 20 20" fill="none" xmlns="http://www.w3.org/2000/svg">
<path d="M4 10C4 6.69 6.69 4 10 4C13.31 4 16 6.69 16 10C16 11.66 15.33 13.16 14.23 14.25L13.52 13.54C14.44 12.63 15 11.38 15 10C15 7.24 12.76 5 10 5C7.24 5 5 7.24 5 10C5 11.38 5.56 12.63 6.47 13.54L5.76 14.25C4.67 13.16 4 11.66 4 10ZM12 10C12 8.9 11.1 8 10 8C8.9 8 8 8.9 8 10C8 10.74 8.4 11.38 9 11.72V20H11V11.72C11.6 11.38 12 10.74 12 10ZM2.94 17.08L3.65 16.37C2.01 14.74 1 12.49 1 10C1 5.04 5.04 1 10 1C14.96 1 19 5.04 19 10C19 12.49 17.99 14.74 16.35 16.37L17.06 17.08C18.88 15.27 20 12.77 20 10C20 4.48 15.52 0 10 0C4.48 0 0 4.48 0 10C0 12.77 1.12 15.27 2.94 17.08Z" fill="#030303"/>
</svg>
