<svg width="20" height="16" viewBox="0 0 20 16" fill="none" xmlns="http://www.w3.org/2000/svg">
<path d="M12 7.99992C12 9.09992 11.1 9.99992 10 9.99992C8.9 9.99992 8 9.09992 8 7.99992C8 6.89992 8.9 5.99992 10 5.99992C11.1 5.99992 12 6.89992 12 7.99992ZM6.48 4.44992L5.77 3.74992C4.68 4.82992 4 6.33992 4 7.99992C4 9.65992 4.68 11.1699 5.77 12.2499L6.48 11.5399C5.57 10.6399 5 9.38992 5 7.99992C5 6.60992 5.57 5.35992 6.48 4.44992ZM14.23 3.74992L13.52 4.45992C14.43 5.35992 15 6.60992 15 7.99992C15 9.38992 14.43 10.6399 13.52 11.5499L14.23 12.2599C15.32 11.1699 16 9.65992 16 7.99992C16 6.33992 15.32 4.82992 14.23 3.74992ZM3.65 1.62992L2.95 0.919922C1.13 2.72992 0 5.23992 0 7.99992C0 10.7599 1.13 13.2699 2.95 15.0799L3.66 14.3699C2.02 12.7399 1 10.4899 1 7.99992C1 5.50992 2.02 3.25992 3.65 1.62992ZM17.05 0.919922L16.34 1.62992C17.98 3.25992 19 5.50992 19 7.99992C19 10.4899 17.98 12.7399 16.35 14.3699L17.06 15.0799C18.87 13.2699 20 10.7599 20 7.99992C20 5.23992 18.87 2.72992 17.05 0.919922Z" fill="#030303"/>
</svg>
